<svg xmlns="http://www.w3.org/2000/svg" viewBox="0 0 640 480"><defs><linearGradient id="b" x2="1" y2="1"><stop stop-color="#fff1e5"/><stop offset="1" stop-color="#f3d5bb"/></linearGradient><linearGradient id="p" x2="1"><stop stop-color="#d27a4c"/><stop offset="1" stop-color="#984c36"/></linearGradient></defs><rect width="640" height="480" rx="34" fill="url(#b)"/><path d="M235 129c0-51 31-82 85-82s85 31 85 82" fill="none" stroke="#714534" stroke-width="17"/><path d="M212 143q0-30 34-30h148q34 0 34 30l26 246q3 25-24 25H210q-27 0-24-25z" fill="url(#p)"/><path d="M233 246q87-37 174 0l18 127H215z" fill="#ba6645"/><path d="M255 275h130v91H255z" rx="18" fill="#e6a076"/><path d="M298 275v-17q0-22 22-22t22 22v17" fill="none" stroke="#754537" stroke-width="10"/><path d="M186 179q-38 32-41 116M454 179q38 32 41 116" fill="none" stroke="#764431" stroke-width="17" stroke-linecap="round"/></svg>
